<?xml version="1.0" encoding="UTF-8"?>
<svg width="105px" height="104px" viewBox="0 0 105 104" version="1.1" xmlns="http://www.w3.org/2000/svg" xmlns:xlink="http://www.w3.org/1999/xlink">
    <!-- Generator: Sketch 62 (91390) - https://sketch.com -->
    <title>idea</title>
    <desc>Created with Sketch.</desc>
    <g id="Page-1" stroke="none" stroke-width="1" fill="none" fill-rule="evenodd">
        <g id="Desktop-HD-Copy" transform="translate(-800.000000, -688.000000)" fill-rule="nonzero">
            <g id="Group-4" transform="translate(212.000000, 338.000000)">
                <g id="Group-3" transform="translate(0.000000, 295.000000)">
                    <g id="Group-2-Copy" transform="translate(528.000000, 0.000000)">
                        <g id="idea" transform="translate(60.000000, 55.000000)">
                            <path d="M87.7868852,34.9999598 C87.7868852,43.8623385 84.21105,55.9904238 78.3510861,66.3626336 C74.8231549,72.6068975 67.1311475,80.6264877 67.1311475,87.7868852 L51.6393443,87.7868852 L51.6393443,1.72131148 C71.6031148,1.72131148 87.7868852,16.136882 87.7868852,34.9999598 Z" id="Path" fill="#DBE6FD"></path>
                            <polygon id="Path" fill="#17AFDC" points="51.6393443 30.9836066 67.1311475 30.9836066 67.1311475 51.6393443 51.6393443 51.6393443"></polygon>
                            <path d="M15.4918033,34.9999598 C15.4918033,43.8623385 19.0676385,55.9904238 24.9276025,66.3626336 C28.4555336,72.6068975 36.147541,80.6264877 36.147541,87.7868852 L51.6393443,87.7868852 L51.6393443,1.72131148 C31.6755738,1.72131148 15.4918033,16.136882 15.4918033,34.9999598 Z" id="Path" fill="#FCCC38"></path>
                            <path d="M65.8296639,94.6721311 L37.4490246,94.6721311 C35.5477164,94.6721311 34.0064016,93.1308164 34.0064016,91.2295082 L34.0064016,91.1087066 C34.0166955,90.2203486 34.3908012,89.3750679 35.0414226,88.7701071 C35.692044,88.1651462 36.5622655,87.8534267 37.4490246,87.9076869 L65.8296639,87.9076869 C66.716423,87.8534267 67.5866445,88.1651462 68.2372659,88.7701071 C68.8878874,89.3750679 69.261993,90.2203486 69.2722869,91.1087066 L69.2722869,91.2295082 C69.2722869,93.1308164 67.7309721,94.6721311 65.8296639,94.6721311 L65.8296639,94.6721311 Z" id="Path" fill="#5358A1"></path>
                            <rect id="Rectangle" fill="#5358A1" x="33.5655738" y="94.6721311" width="36.147541" height="7.00604754" rx="3.50302377"></rect>
                            <path d="M48.7039574,17.4094648 L47.9486803,21.0032705 C46.8341581,21.2063038 45.7384257,21.5015598 44.6727836,21.8859934 L42.2058516,19.1324631 C40.4070925,19.9077063 38.7098319,20.8998998 37.151823,22.0869738 L38.292777,25.5611139 C37.427403,26.2952094 36.6236594,27.0990049 35.8896197,27.9644262 L32.4153762,26.8231967 C31.2281883,28.3812504 30.2359174,30.07859 29.4606418,31.8774492 L32.2140689,34.3444672 C31.8295533,35.4101254 31.5342674,36.5058966 31.3312598,37.6204672 L27.7373336,38.3758648 C27.4755336,40.3241025 27.4755336,42.2986073 27.7373336,44.2468451 L31.3311393,45.0021221 C31.5341108,46.1166583 31.8293682,47.2123958 32.2138623,48.2780189 L29.460332,50.7449508 C30.2355984,52.5436982 31.2277903,54.2409561 32.4148426,55.7989795 L35.8889828,54.6580254 C36.6230775,55.5234054 37.426873,56.3271548 38.2922951,57.0612 L37.1510656,60.5354434 C38.7091526,61.7226651 40.4065263,62.7149703 42.2054213,63.4902811 L44.6724566,60.7367508 C45.7381265,61.1212398 46.8338864,61.4165645 47.9484393,61.6196803 L48.7038369,65.2134861 C49.6774584,65.3383409 50.6577677,65.4039117 51.6393443,65.4098361 L51.6393443,17.2131148 C50.6578077,17.2190363 49.6775382,17.2846072 48.7039574,17.4094648 L48.7039574,17.4094648 Z" id="Path" fill="#F4393D"></path>
                            <path d="M51.6393443,55.0819672 C44.0341116,55.0819672 37.8688525,48.916708 37.8688525,41.3114754 C37.8688525,33.7062428 44.0341116,27.5409836 51.6393443,27.5409836" id="Path" fill="#F7EDD3"></path>
                            <circle id="Oval" fill="#FCCC38" cx="61.9672131" cy="15.4918033" r="3.44262295"></circle>
                            <circle id="Oval" fill="#FCCC38" cx="75.7377049" cy="24.0983607" r="3.44262295"></circle>
                            <circle id="Oval" fill="#FCCC38" cx="84.3442623" cy="46.4754098" r="3.44262295"></circle>
                            <circle id="Oval" fill="#FCCC38" cx="65.4098361" cy="67.1311475" r="3.44262295"></circle>
                            <path d="M69.8324705,83.372668 L66.6319672,82.1052148 C67.0956644,80.951422 67.6327089,79.8284799 68.2398098,78.7432697 L71.2538262,80.4074336 C70.7173939,81.3645762 70.2426422,82.3550037 69.8324705,83.372668 L69.8324705,83.372668 Z" id="Path" fill="#000000"></path>
                            <path d="M73.0044516,77.5077639 L70.1148689,75.638523 C70.7603607,74.6400246 71.4352697,73.6516303 72.1118484,72.6800189 L74.9375705,74.6467549 C74.2828352,75.5881057 73.6297697,76.5428828 73.0044516,77.5077639 Z" id="Path" fill="#000000"></path>
                            <path d="M76.9488369,71.7689459 L74.1213934,69.8055664 C74.7995902,68.8272418 75.4468033,67.8741344 76.0276082,66.9529574 L78.9407213,68.7852246 C78.3348025,69.7500885 77.65905,70.7469172 76.9488369,71.7689459 Z" id="Path" fill="#000000"></path>
                            <path d="M80.7461533,65.6384434 L77.7103279,64.014627 C78.2482377,63.0077287 78.7640115,61.9873811 79.2576492,60.9535844 L82.3640828,62.4362016 C81.8488598,63.5153836 81.30955,64.5827975 80.7461533,65.6384434 Z" id="Path" fill="#000000"></path>
                            <path d="M83.8382828,59.1718033 L80.6696582,57.8236549 C81.1201598,56.7663393 81.5462877,55.7006066 81.9463549,54.6365434 L85.1687705,55.8468492 C84.7519033,56.9579328 84.3084074,58.0662508 83.8382828,59.1718033 L83.8382828,59.1718033 Z" id="Path" fill="#000000"></path>
                            <path d="M89.3627975,38.3781885 L85.9319311,38.0890082 C86.0210262,37.040127 86.0655738,36.0197852 86.0655738,35.0599475 L86.0638525,34.743932 L89.5064754,34.7170451 L89.5081967,35.0599475 C89.5081967,36.1172803 89.4594492,37.2334475 89.3627975,38.3781885 L89.3627975,38.3781885 Z" id="Path" fill="#000000"></path>
                            <path d="M85.8512533,31.4357951 C85.7209203,30.3384077 85.5295583,29.2491326 85.2780566,28.173032 L88.6299148,27.3896975 C88.910478,28.5900319 89.1242888,29.8049956 89.2703631,31.0289975 L85.8512533,31.4357951 Z" id="Path" fill="#000000"></path>
                            <path d="M84.3451057,24.9959902 C83.9735292,23.9544858 83.5447878,22.9342698 83.0608352,21.939991 L86.1555123,20.4338434 C86.6959245,21.5426569 87.1740447,22.6807611 87.5876434,23.8428492 L84.3451057,24.9959902 Z" id="Path" fill="#000000"></path>
                            <path d="M81.4462795,19.0487385 C80.8529858,18.1132356 80.2105112,17.2098456 79.5215607,16.3423721 L82.2178402,14.2008197 C82.9833522,15.165198 83.69709,16.1695642 84.3560361,17.2096721 L81.4462795,19.0487385 Z" id="Path" fill="#000000"></path>
                            <path d="M77.3186607,13.8511869 C76.5398125,13.0595369 75.7209457,12.3082798 74.8652754,11.6003656 L77.0589492,8.94782459 C78.0054147,9.73088233 78.9112374,10.5618048 79.7728721,11.4373402 L77.3186607,13.8511869 Z" id="Path" fill="#000000"></path>
                            <path d="M72.1917,9.60169918 C71.2772533,8.98645082 70.3149025,8.40483689 69.3315344,7.87365738 L70.9687943,4.84454508 C72.0496574,5.42953279 73.1069902,6.06829426 74.1130451,6.74404672 L72.1917,9.60169918 Z" id="Path" fill="#000000"></path>
                            <path d="M66.3158828,6.42803115 C65.3064541,5.99942459 64.2516516,5.60939262 63.1791885,5.26982951 L64.221391,1.98857951 C65.3955492,2.36175984 66.553768,2.78873115 67.6622926,3.26107623 L66.3158828,6.42803115 Z" id="Path" fill="#000000"></path>
                            <path d="M59.9416426,4.40077377 C58.8607795,4.16039262 57.7496557,3.96708934 56.6393926,3.82413443 L57.0797902,0.408398361 C58.2917828,0.566414754 59.5054279,0.778222131 60.6863164,1.03877705 L59.9416426,4.40077377 Z" id="Path" fill="#000000"></path>
                            <path d="M84.3442623,41.3114754 C82.1630902,41.3181855 80.2221709,42.6968115 79.4975139,44.7540984 L68.852459,44.7540984 L68.852459,37.8688525 L75.7377049,37.8688525 C76.1942615,37.8689712 76.6321528,37.6876574 76.9549871,37.3648231 C77.2778213,37.0419889 77.4591351,36.6040976 77.4590164,36.147541 L77.4590164,28.945109 C79.8303382,28.1068348 81.2528585,25.682097 80.8276358,23.2031746 C80.402413,20.7242522 78.2531343,18.9122042 75.7380059,18.9121287 C73.2228775,18.9120533 71.0734901,20.7239723 70.6481186,23.2028692 C70.2227471,25.6817661 71.6451219,28.1065892 74.0163934,28.9450057 L74.0163934,34.4262295 L68.852459,34.4262295 L68.852459,30.9836066 C68.8525778,30.52705 68.671264,30.0891587 68.3484297,29.7663244 C68.0255954,29.4434901 67.5877041,29.2621763 67.1311475,29.2622951 L63.6885246,29.2622951 L63.6885246,20.3385516 C66.0598464,19.5002774 67.4823667,17.0755397 67.057144,14.5966172 C66.6319212,12.1176948 64.4826425,10.3056468 61.9675141,10.3055713 C59.4523857,10.3054959 57.3029983,12.1174149 56.8776268,14.5963119 C56.4522553,17.0752088 57.8746301,19.5000318 60.2459016,20.3384484 L60.2459016,29.2622951 L53.3606557,29.2622951 L53.3606557,1.78183279 C53.3607791,1.32527481 53.1794667,0.887380841 52.8566315,0.564545584 C52.5337962,0.241710327 52.0959022,0.0605212486 51.6393443,0.0605212486 C30.4045057,0.0605212486 13.7704918,15.4346557 13.7704918,35.0599475 C13.7704918,44.3825705 17.4711393,56.7259574 23.4293385,67.2706598 C24.4992713,69.1634311 25.8953238,71.1536975 27.3728631,73.2616328 C30.4971639,77.7153713 33.9742475,82.7235959 34.3523508,87.0834025 C33.0290467,88.0187996 32.2547537,89.5487378 32.2846598,91.1689869 C32.2895677,92.3328598 32.6914668,93.4602188 33.423927,94.3647221 C32.4050727,95.3699254 31.8354314,96.7440452 31.8442623,98.1752754 C31.8473739,101.025948 34.1575244,103.336098 37.0081967,103.33921 L66.2704918,103.33921 C67.6584737,103.330624 68.9853435,102.767154 69.955379,101.774381 C70.9254145,100.781608 71.4579961,99.4420411 71.4344262,98.0542328 C71.4332809,96.6541683 70.8611465,95.3151371 69.8502172,94.3465279 C70.5920777,93.407186 70.9951017,92.2449067 70.9940115,91.0479443 C70.9914642,89.7008648 70.4385222,88.4133378 69.4634106,87.4839362 C68.4882991,86.5545347 67.1757277,86.0639973 65.830077,86.1260779 L53.3606557,86.1260779 L53.3606557,53.3606557 L56.8032787,53.3606557 L56.8032787,58.5245902 C56.8031599,58.9811467 56.9844737,59.4190381 57.307308,59.7418723 C57.6301423,60.0647066 58.0680336,60.2460204 58.5245902,60.2459016 L63.6885246,60.2459016 L63.6885246,62.2843992 C61.3173377,63.1227404 59.8949743,65.5474312 60.3202697,68.0262348 C60.7455652,70.5050383 62.8948125,72.3169377 65.4098361,72.3169377 C67.9248596,72.3169377 70.0741069,70.5050383 70.4994024,68.0262348 C70.9246979,65.5474312 69.5023345,63.1227404 67.1311475,62.2843992 L67.1311475,58.5245902 C67.1312663,58.0680336 66.9499525,57.6301423 66.6271182,57.307308 C66.304284,56.9844737 65.8663926,56.8031599 65.4098361,56.8032787 L60.2459016,56.8032787 L60.2459016,53.3606557 L67.1311475,53.3606557 C67.5877041,53.3607745 68.0255954,53.1794607 68.3484297,52.8566264 C68.671264,52.5337922 68.8525778,52.0959008 68.852459,51.6393443 L68.852459,48.1967213 L79.4976172,48.1967213 C80.3774511,50.6656399 82.9698677,52.0813008 85.5225616,51.4868089 C88.0752555,50.8923171 89.7754724,48.4769532 89.4739759,45.8733468 C89.1724794,43.2697403 86.9652631,41.3068556 84.3442623,41.3114754 L84.3442623,41.3114754 Z M75.7377049,22.3770492 C76.688359,22.3770492 77.4590164,23.1477066 77.4590164,24.0983607 C77.4590164,25.0490147 76.688359,25.8196721 75.7377049,25.8196721 C74.7870508,25.8196721 74.0163934,25.0490147 74.0163934,24.0983607 C74.0173423,23.1480999 74.7874441,22.377998 75.7377049,22.3770492 L75.7377049,22.3770492 Z M30.1918033,71.284827 C28.762977,69.2474828 27.4140025,67.3244508 26.4264344,65.5762525 C20.8297107,55.6703115 17.2131148,43.6917221 17.2131148,35.0599475 C17.2131148,17.8939107 31.4433516,4.33520902 49.9181361,3.54011803 L49.9181361,15.5652 C49.4611279,15.5994541 48.994859,15.6409377 48.4959369,15.7019926 C47.7651834,15.7909418 47.1719398,16.3348603 47.02005,17.0551672 L46.4955836,19.5497262 C46.0635689,19.6522705 45.6326672,19.7682582 45.2028787,19.8976893 L43.4874541,17.9847443 C42.99612,17.4349844 42.2088934,17.2598197 41.5308049,17.549373 C39.604314,18.3801098 37.7859053,19.4418616 36.115559,20.7112844 C35.5275901,21.1546316 35.2867135,21.922856 35.5162844,22.6225426 L36.3063664,25.0296934 C35.9810385,25.3356221 35.6643172,25.6533246 35.357459,25.9777574 L32.9527869,25.1876754 C32.2532612,24.9611402 31.4869474,25.2010796 31.0415287,25.7861066 C29.7705171,27.4567495 28.7078733,29.2760843 27.8771041,31.2038656 C27.5880269,31.8819981 27.763128,32.6689389 28.3124754,33.1605148 L30.2262639,34.8750959 C30.097659,35.3003861 29.9825148,35.7267951 29.8808311,36.154323 L27.203882,36.688859 C26.3991334,36.8494495 25.8197117,37.5558863 25.8196721,38.3765016 L25.8196721,44.2464492 C25.8196937,45.0671051 26.3991559,45.7735778 27.2039508,45.9341434 L29.8809,46.4686795 C29.9825951,46.8956566 30.0977393,47.3220656 30.2263328,47.7479066 L28.3117008,49.4624877 C27.7630946,49.9544974 27.5881076,50.7409257 27.8763295,51.4191369 C28.7072076,53.3468632 29.7698439,55.1661852 31.0407541,56.8368959 C31.485766,57.4225025 32.2524902,57.6625704 32.9520123,57.435327 L35.3566844,56.6452451 C35.6643,56.9696779 35.9803156,57.2872943 36.3055918,57.593309 L35.5155098,59.9971033 C35.2860547,60.696612 35.5265251,61.464622 36.113941,61.9083615 C37.7843404,63.1795407 39.6033992,64.2424618 41.5309082,65.0736295 C42.2091552,65.3614609 42.9953497,65.1865259 43.4875574,64.6382582 L45.202982,62.7253131 C45.6324721,62.8547557 46.0633738,62.9707434 46.4956869,63.0732762 L47.0193098,65.5661484 C47.1705023,66.2871513 47.7639203,66.8319079 48.4951967,66.9210098 C48.9945492,66.9821508 49.4610246,67.0235484 49.9181361,67.0578025 L49.9181361,86.1260951 L37.7204066,86.1260951 C37.0169238,81.0533385 33.4237377,75.8928811 30.1918033,71.284827 L30.1918033,71.284827 Z M36.147541,41.3114754 C36.1585638,49.1959938 42.0832381,55.8175579 49.9180328,56.7017213 L49.9180328,62.6211393 L49.6331041,61.2662779 C49.4893237,60.5800492 48.9438303,60.0495195 48.2538689,59.924877 C47.2335275,59.7391533 46.2304431,59.4686998 45.2550344,59.1163254 C45.0680145,59.0498886 44.8710467,59.0157839 44.672577,59.0154738 C44.1832348,59.0154643 43.717065,59.2239363 43.3908369,59.5886705 L41.7720639,61.3940164 C40.8751155,60.9457422 40.0094149,60.4374968 39.1808533,59.8727385 L39.9280402,57.5983869 C40.1467715,56.9318907 39.9396975,56.1993236 39.4044172,55.7459631 C38.6106551,55.0739357 37.8738375,54.337406 37.2015,53.5439066 C36.7469554,53.0121438 36.0168819,52.8064841 35.3516066,53.0227967 L33.0780984,53.770827 C32.513179,52.9419157 32.0046574,52.0759429 31.555977,51.178773 L33.3630098,49.56 C33.8840568,49.0919519 34.0703791,48.3553146 33.8345287,47.6958197 C33.4824171,46.7203283 33.2119695,45.717266 33.025977,44.6969852 C32.9003355,44.0012866 32.3619534,43.4532301 31.6686025,43.3152197 L29.2622951,42.8344402 L29.2622951,39.7885107 L31.6686885,39.3077656 C32.3620394,39.1697551 32.9004216,38.6216986 33.0260631,37.926 C33.2122316,36.9051945 33.4826448,35.9015657 33.8345287,34.9254098 C34.0709323,34.2657855 33.8841684,33.5286938 33.3621836,33.0612295 L31.5568033,31.4441951 C32.0058164,30.5473771 32.5140327,29.6814446 33.0780811,28.852141 L35.3524328,29.6001713 C36.0177125,29.8162654 36.7476639,29.6106402 37.2023262,29.0790615 C37.8762704,28.2849329 38.6135528,27.54681 39.4069131,26.8719615 C39.9401173,26.4194277 40.1461429,25.6890488 39.928023,25.0245811 L39.1816967,22.7502295 C40.0101965,22.1858359 40.8755915,21.6776044 41.7720639,21.2289516 L43.3908369,23.0343148 C43.8591308,23.5549272 44.5953168,23.7414616 45.2550172,23.5066598 C46.23036,23.1540763 47.2334621,22.883618 48.2538516,22.6981082 C48.9435894,22.5741967 49.4891894,22.0442237 49.6330869,21.358377 L49.9180328,20.0035156 L49.9180328,25.9212295 C42.0832381,26.8053929 36.1585638,33.426957 36.147541,41.3114754 L36.147541,41.3114754 Z M49.9180328,29.3997074 L49.9180328,53.223123 C43.9915154,52.3746747 39.590174,47.298357 39.590174,41.3114152 C39.590174,35.3244733 43.9915154,30.2481556 49.9180328,29.3997074 Z M66.2704918,99.8965869 L37.0081967,99.8965869 C36.5329039,99.8885812 36.0812371,99.6879096 35.7567107,99.3405625 C35.4321844,98.9932155 35.2626223,98.5289734 35.2868852,98.0542328 C35.2878341,97.103972 36.0579359,96.3338701 37.0081967,96.3329213 L66.2704918,96.3329213 C66.7457846,96.340927 67.1974514,96.5415986 67.5219778,96.8889457 C67.8465042,97.2362927 68.0160662,97.7005348 67.9918033,98.1752754 C67.9908544,99.1255362 67.2207526,99.895638 66.2704918,99.8965869 L66.2704918,99.8965869 Z M65.830077,89.568718 C66.2768008,89.5275396 66.7199166,89.6785889 67.0484789,89.9840468 C67.3770413,90.2895046 67.5599425,90.7204509 67.5516757,91.1689869 C67.5504397,92.1192477 66.7803378,92.8893495 65.830077,92.8902984 L37.4486115,92.8902984 C36.9733202,92.8822973 36.5216533,92.6816295 36.1971264,92.3342852 C35.8725995,91.9869408 35.703037,91.5227005 35.7273,91.0479615 C35.7457543,90.6183591 35.9412707,90.2155743 36.2673908,89.9353165 C36.5935108,89.6550587 37.0211205,89.5223476 37.4486115,89.568718 L65.830077,89.568718 Z M65.4098361,65.4098361 C66.3604901,65.4098361 67.1311475,66.1804935 67.1311475,67.1311475 C67.1311475,68.0818016 66.3604901,68.852459 65.4098361,68.852459 C64.459182,68.852459 63.6885246,68.0818016 63.6885246,67.1311475 C63.6894734,66.1808868 64.4595753,65.4107849 65.4098361,65.4098361 Z M61.9672131,13.7704918 C62.9178672,13.7704918 63.6885246,14.5411492 63.6885246,15.4918033 C63.6885246,16.4424574 62.9178672,17.2131148 61.9672131,17.2131148 C61.016559,17.2131148 60.2459016,16.4424574 60.2459016,15.4918033 C60.2468505,14.5415425 61.0169523,13.7714406 61.9672131,13.7704918 Z M65.4098361,49.9180328 L53.3606557,49.9180328 L53.3606557,32.704918 L65.4098361,32.704918 L65.4098361,49.9180328 Z M84.3442623,48.1967213 C83.3936082,48.1967213 82.6229508,47.4260639 82.6229508,46.4754098 C82.6229508,45.5247558 83.3936082,44.7540984 84.3442623,44.7540984 C85.2949164,44.7540984 86.0655738,45.5247558 86.0655738,46.4754098 C86.0646249,47.4256706 85.2945231,48.1957725 84.3442623,48.1967213 Z" id="Shape" fill="#000000"></path>
                            <g id="Group" fill="#FCCC38">
                                <polygon id="Path" points="3.44262295 92.9508197 6.8852459 92.9508197 6.8852459 96.3934426 3.44262295 96.3934426"></polygon>
                                <polygon id="Path" points="3.44262295 99.8360656 6.8852459 99.8360656 6.8852459 103.278689 3.44262295 103.278689"></polygon>
                                <polygon id="Path" points="6.8852459 96.3934426 10.3278689 96.3934426 10.3278689 99.8360656 6.8852459 99.8360656"></polygon>
                                <polygon id="Path" points="0 96.3934426 3.44262295 96.3934426 3.44262295 99.8360656 0 99.8360656"></polygon>
                                <polygon id="Path" points="98.1147541 0 101.557377 0 101.557377 3.44262295 98.1147541 3.44262295"></polygon>
                                <polygon id="Path" points="98.1147541 6.8852459 101.557377 6.8852459 101.557377 10.3278689 98.1147541 10.3278689"></polygon>
                                <polygon id="Path" points="101.557377 3.44262295 105 3.44262295 105 6.8852459 101.557377 6.8852459"></polygon>
                                <polygon id="Path" points="94.6721311 3.44262295 98.1147541 3.44262295 98.1147541 6.8852459 94.6721311 6.8852459"></polygon>
                            </g>
                        </g>
                    </g>
                </g>
            </g>
        </g>
    </g>
</svg>