<?xml version="1.0" encoding="UTF-8"?>
<svg width="105px" height="105px" viewBox="0 0 105 105" version="1.1" xmlns="http://www.w3.org/2000/svg" xmlns:xlink="http://www.w3.org/1999/xlink">
    <!-- Generator: Sketch 62 (91390) - https://sketch.com -->
    <title>festival</title>
    <desc>Created with Sketch.</desc>
    <g id="Page-1" stroke="none" stroke-width="1" fill="none" fill-rule="evenodd">
        <g id="Desktop-HD-Copy" transform="translate(-536.000000, -686.000000)" fill-rule="nonzero">
            <g id="Group-4" transform="translate(212.000000, 338.000000)">
                <g id="Group-3" transform="translate(0.000000, 295.000000)">
                    <g id="Group-2-Copy-2" transform="translate(264.000000, 0.000000)">
                        <g id="festival" transform="translate(60.000000, 53.000000)">
                            <polygon id="Path" fill="#6D2E2F" points="50 45 56 45 56 50 50 50"></polygon>
                            <polygon id="Path" fill="#4F1D22" points="53 45 56 45 56 50 53 50"></polygon>
                            <path d="M105,52.099631 C105,59.6482657 103.435254,66.8249446 100.613379,73.3197048 L96.3805664,77.7579631 L96.2226563,81.4097417 C95.1111328,83.0918081 93.9052734,84.7056827 92.6132812,86.2430996 L87.102627,88.8600148 L86.475293,92.4423616 C77.3206055,100.278229 65.4609375,105 52.5,105 C39.5349609,105 27.6773437,100.278229 18.524707,92.4423616 L16.9324805,88.6971808 L12.3867188,86.2430996 C11.090625,84.7015498 9.88271484,83.0835424 8.76914063,81.3994096 L8.098125,77 L4.38662109,73.3217712 C1.56474609,66.8270111 0,59.6482657 0,52.099631 C0,50.3886347 1.378125,49 3.07617188,49 L101.923828,49 C103.621875,49 105,50.3886347 105,52.099631 Z" id="Path" fill="#F94B9A"></path>
                            <path d="M105,52.099631 C105,59.6482657 103.420352,66.8249446 100.571602,73.3197048 L96.2984766,77.7583764 L96.1390625,81.4097417 C95.0169531,83.0918081 93.7996094,84.7056827 92.4953125,86.2430996 L86.9323828,88.8591882 L86.2988672,92.4423616 C77.0569922,100.278229 65.084375,105 52,105 L52,49 L101.894531,49 C103.60875,49 105,50.3886347 105,52.099631 Z" id="Path" fill="#E81A81"></path>
                            <path d="M101,73.7007984 C99.7703849,76.4985494 98.3013938,79.1678323 96.6196241,81.6841768 C82.0367163,84.451952 81.646963,68.1175314 73.3060398,68.1175314 C65.5293892,68.1175314 64.8628191,81.9839359 53.0020459,81.9839359 C41.1367717,81.9839359 40.4761349,68.1175314 32.6939602,68.1175314 C24.3252121,68.1175314 24.0205703,84.4250348 9.37219215,81.673981 C7.6945143,79.1617147 6.22961511,76.4965102 5,73.7028376 C9.218746,75.7705632 12.3879204,76.3456111 14.671199,75.4687649 C20.2097865,73.3361935 22.065871,62 32.6939602,62 C44.5569839,62 45.2217126,75.8664045 53.0020459,75.8664045 C60.7778782,75.8664045 61.4473126,62 73.3060398,62 C84.5671455,62 85.8689826,74.5886561 92.3783726,75.7603673 C94.5245727,76.1478109 97.4114062,75.4544907 101,73.7007984 L101,73.7007984 Z" id="Path" fill="#FFEFAE"></path>
                            <path d="M101,73.7008696 C99.7703849,76.4986377 98.3013938,79.1679368 96.6196241,81.6842967 C82.0361025,84.451477 81.6473722,68.1175687 73.3060398,68.1175687 C65.5293892,68.1175687 64.86241,81.9840576 53.0020459,81.9840576 L53,81.9840576 L53,75.8664889 L53.0020459,75.8664889 C60.7786966,75.8664889 61.4477218,62 73.3060398,62 C84.5669409,62 85.8681642,74.5879171 92.3783726,75.7604511 C94.5245727,76.1478971 97.4114062,75.4545727 101,73.7008696 L101,73.7008696 Z" id="Path" fill="#FFE266"></path>
                            <circle id="Oval" fill="#FFEFAE" cx="52" cy="65" r="3"></circle>
                            <path d="M56,65 C56,66.6390927 54.6643975,67.9679787 53,68 L53,62 C54.6643975,62.0320213 56,63.3629086 56,65 Z" id="Path" fill="#FFE266"></path>
                            <g id="Group" transform="translate(6.000000, 62.000000)" fill="#FFEFAE">
                                <ellipse id="Oval" cx="25.8903235" cy="16.9230303" rx="3.08823529" ry="3.03030303"></ellipse>
                                <ellipse id="Oval" cx="66.7581765" cy="16.9230303" rx="3.08823529" ry="3.03030303"></ellipse>
                                <ellipse id="Oval" cx="3.12385294" cy="3.16505051" rx="3.08823529" ry="3.03030303"></ellipse>
                            </g>
                            <circle id="Oval" fill="#FFE266" cx="96" cy="65" r="3"></circle>
                            <path d="M93,86 C91.1329243,88.162 89.0858896,90.17 86.8793456,92 L19.1206544,92 C16.9141104,90.17 14.8650307,88.162 13,86 L93,86 Z" id="Path" fill="#FFEFAE"></path>
                            <path d="M93,86 C91.1329243,88.162 89.0858896,90.17 86.8793456,92 L53,92 L53,86 L93,86 Z" id="Path" fill="#FFE266"></path>
                            <path d="M54.8720262,1.0990628 C53.632772,-0.365940043 51.3678495,-0.36676843 50.1279738,1.0990628 C49.5914194,1.73070807 37,16.734872 37,28.3799257 C37,43.9745227 49.3925421,47 52.5,47 C55.6074579,47 68,43.7036401 68,28.3799257 C68,16.734872 55.4085806,1.73070807 54.8720262,1.0990628 L54.8720262,1.0990628 Z" id="Path" fill="#FFE266"></path>
                            <path d="M68,28.3801718 C68,40.3833443 60.6423416,45.0056841 56.0072173,46.4449879 C55.1222935,46.7216656 53.9170008,47 53,47 L53,0 C53.8480353,0 54.6960706,0.36655651 55.2955092,1.09966953 C55.8147554,1.73130646 68,16.7352721 68,28.3801718 Z" id="Path" fill="#FFD655"></path>
                            <path d="M54.6651153,19.9832217 C53.534458,18.6742154 51.4689027,18.6703049 50.3348847,19.9832217 C49.5841938,20.8521878 43,30.7170732 43,37.1583721 C43,44.4355003 48.8370736,47 52.5,47 C56.1072653,47 62,44.4114195 62,37.1583721 C62,30.7170732 55.4158062,20.8521878 54.6651153,19.9832217 Z" id="Path" fill="#FFB012"></path>
                            <path d="M62,37.1576007 C62,44.4107615 56.4165377,47 53,47 L53,19 C53.7581251,19 54.5162503,19.3293149 55.0515145,19.9838283 C55.7618837,20.8523964 62,30.717436 62,37.1576007 Z" id="Path" fill="#FF7F00"></path>
                        </g>
                    </g>
                </g>
            </g>
        </g>
    </g>
</svg>