<?xml version="1.0" encoding="UTF-8"?>
<svg width="107px" height="136px" viewBox="0 0 107 136" version="1.1" xmlns="http://www.w3.org/2000/svg" xmlns:xlink="http://www.w3.org/1999/xlink">
    <!-- Generator: Sketch 62 (91390) - https://sketch.com -->
    <title>ganesha</title>
    <desc>Created with Sketch.</desc>
    <g id="Page-1" stroke="none" stroke-width="1" fill="none" fill-rule="evenodd">
        <g id="Desktop-HD-Copy" transform="translate(-271.000000, -655.000000)" fill-rule="nonzero">
            <g id="Group-4" transform="translate(212.000000, 338.000000)">
                <g id="Group-3" transform="translate(0.000000, 295.000000)">
                    <g id="Group-2">
                        <g id="ganesha" transform="translate(59.000000, 22.000000)">
                            <g id="Icons" transform="translate(2.265339, 2.265339)">
                                <path d="M59.0846509,7.83807405 L56.6607378,15.8573752 L45.6511888,15.8573752 L43.2272757,7.83807405 C42.9702401,6.94406928 43.2526715,5.98203741 43.9521843,5.36885419 L49.524919,0.56633483 C50.4165325,-0.179287857 51.7141669,-0.179287857 52.6057805,0.56633483 L58.1785152,5.36885419 C58.9445641,5.93861099 59.3003228,6.90805274 59.0846509,7.83807405 Z" id="Shape" fill="#FFDC00"></path>
                                <path d="M56.8193116,131.38974 L2.45116794,131.38974 C1.80015508,131.394387 1.17858544,131.11878 0.744989275,130.633152 C0.311393135,130.147525 0.107688024,129.498824 0.185828616,128.8525 L2.58708829,108.464447 C3.70383991,99.0883016 10.5192673,91.3882228 19.6904002,89.1411022 L23.1563693,88.3482335 C26.1972265,95.1969767 31.6349681,100.699166 38.4474097,103.820501 C37.1345054,106.797692 36.4482253,110.013184 36.4312577,113.266966 C36.4312577,122.328323 38.696597,131.38974 56.8193116,131.38974 Z" id="Shape" fill="#FF9801"></path>
                                <path d="M102.126098,128.8525 C102.204239,129.498824 102.000533,130.147525 101.566937,130.633152 C101.133341,131.11878 100.511771,131.394387 99.8607587,131.38974 L57.9746347,131.38974 C61.1024156,131.38974 63.637983,128.854113 63.637983,125.726332 C63.637983,122.598551 61.1024156,120.062984 57.9746347,120.062984 C53.443956,119.949717 50.6122117,118.952968 50.6122117,113.266966 C50.6043831,110.869038 51.2632015,108.516114 52.5151669,106.470948 C64.0854011,105.936136 74.3658999,98.9247129 79.0875971,88.3482335 L82.5309129,89.2090624 C91.7020458,91.456183 98.5174732,99.1562618 99.6342247,108.532407 L102.126098,128.8525 Z" id="Shape" fill="#FF9801"></path>
                                <path d="M99.7021849,108.41914 C98.5854333,99.0429948 91.770006,91.342916 82.5988731,89.0957954 L79.1555573,88.3482335 C78.90637,88.9145683 78.6118759,89.4809031 78.3400351,90.0472379 C86.2916947,92.9706255 91.9234252,100.11758 92.906167,108.532407 L95.3074266,128.920461 C95.364491,129.551811 95.1544046,130.178187 94.7281955,130.647447 C94.3019866,131.116708 93.6986533,131.385915 93.0647407,131.38974 L99.8607587,131.38974 C100.511771,131.394387 101.133341,131.11878 101.566937,130.633152 C102.000533,130.147525 102.204239,129.498824 102.126098,128.8525 L99.7021849,108.41914 Z" id="Shape" fill="#F57C00"></path>
                                <path d="M99.8607587,81.5522155 C99.8607587,86.9890299 96.5986701,92.4258442 93.9935298,95.8918134 C90.9769166,92.5515755 87.0336846,90.1856364 82.6668332,89.0957954 L79.1555573,88.3482335 L71.2042163,86.3547349 C74.163437,83.0650077 76.2302295,79.0718085 77.2073655,74.7561975 C77.6151266,72.9439261 75.508361,71.0410411 75.508361,69.0928492 C75.508361,65.4683063 77.0714451,62.0249906 75.7122415,58.8988223 C74.9401636,57.1482075 73.9832929,55.4850749 72.857914,53.9377292 C80.7639482,45.6692407 90.7994014,42.8828733 98.728089,47.5721257 C99.7836683,48.1763925 100.173671,49.5064031 99.6115713,50.585027 C97.0670106,55.2358656 95.6035751,60.4004763 95.33008,65.6948403 C95.33008,74.7561975 99.8607587,72.4908582 99.8607587,81.5522155 L99.8607587,81.5522155 Z" id="Shape" fill="#FF9801"></path>
                                <path d="M95.33008,65.6948403 C95.6035751,60.4004763 97.0670106,55.2358656 99.6115713,50.585027 C100.173671,49.5064031 99.7836683,48.1763925 98.728089,47.5721257 C95.1804154,45.4798819 90.9775486,44.7928747 86.9483245,45.6465873 C88.7027333,46.0148286 90.3858238,46.6651135 91.9320711,47.5721257 C92.9876503,48.1763925 93.3776534,49.5064031 92.8155534,50.585027 C90.2709926,55.2358656 88.8075572,60.4004763 88.5340621,65.6948403 C88.5340621,74.7561975 93.0647407,72.4908582 93.0647407,81.5522155 C92.871865,85.345764 91.6928351,89.0234004 89.6440783,92.2219637 C91.2382008,93.2632002 92.6988791,94.4956476 93.9935298,95.8918134 C96.5986701,92.4258442 99.8607587,86.9890299 99.8607587,81.5522155 C99.8607587,72.4908582 95.33008,74.7561975 95.33008,65.6948403 Z" id="Shape" fill="#F57C00"></path>
                                <path d="M40.9619364,93.1734062 C40.8675596,96.8216201 40.0110393,100.409745 38.4474097,103.707234 C31.6548258,100.61368 26.2197711,95.1544692 23.1563693,88.3482335 L31.1077103,86.3547349 C33.8330522,89.3452847 37.2027453,91.6769573 40.9619364,93.1734062 L40.9619364,93.1734062 Z" id="Shape" fill="#D84315"></path>
                                <path d="M31.1077103,86.2414679 L23.1563693,88.3482335 L19.7130535,89.2090624 C15.3462022,90.2989033 11.4029702,92.6648425 8.38635695,96.0050804 C5.71325656,92.4258442 2.45116794,86.9890299 2.45116794,81.5522155 C2.45116794,72.4908582 6.98184657,74.7561975 6.98184657,65.6948403 C6.7083515,60.4004763 5.24491607,55.2358656 2.70035526,50.585027 C2.13825532,49.5064031 2.52825841,48.1763925 3.5838376,47.5721257 C11.4898718,42.8828733 21.5479784,45.6692407 29.4993194,53.9377292 C28.3739405,55.4850749 27.4170698,57.1482075 26.6449919,58.8988223 C25.2857883,62.0249906 26.8488724,65.4683063 26.8488724,69.0928492 C26.8488724,71.0410411 24.7421068,72.9439261 25.1725213,74.7788509 C26.1411809,79.0432915 28.1843033,82.9891694 31.1077103,86.2414679 Z" id="Shape" fill="#FF9801"></path>
                                <path d="M25.1045611,74.7561975 C24.6741467,72.9212727 26.7809122,71.0183877 26.7809122,69.0701958 C26.7809122,65.4456529 25.2178281,62.0023372 26.5770317,58.8761689 C27.3491096,57.1255541 28.3059803,55.4624215 29.4313592,53.9150758 C23.0657557,47.300285 15.3636021,44.2194235 8.49962392,45.6239339 C13.945695,46.8841997 18.8773357,49.7767965 22.6353413,53.9150758 C21.5321627,55.472635 20.5981003,57.1433159 19.8489739,58.8988223 C18.4897703,62.0249906 20.0528544,65.4683063 20.0528544,69.0928492 C20.0528544,71.0410411 17.9460889,72.9439261 18.3765034,74.7788509 C19.3451629,79.0432915 21.3882853,82.9891694 24.3116924,86.2414679 L16.3603514,88.3482335 L12.9170356,89.2090624 C10.4072982,89.8410214 8.02441277,90.8983789 5.87183031,92.3352307 C6.68735246,93.6944343 7.52552801,94.9403709 8.31839677,96.0050804 C11.33501,92.6648425 15.278242,90.2989033 19.6450934,89.2090624 L23.1563693,88.3482335 L31.1077103,86.3547349 C28.1391965,83.0714438 26.0710763,79.0756793 25.1045611,74.7561975 Z" id="Shape" fill="#F57C00"></path>
                                <path d="M79.1555573,88.3482335 C74.43386,98.9247129 64.1533612,105.936136 52.5831271,106.470948 C54.8484664,102.461297 58.6089297,99.5390097 59.0393441,94.0115818 C63.7285304,92.594578 67.9372067,89.9141921 71.2042163,86.2641213 L79.1555573,88.3482335 Z" id="Shape" fill="#D84315"></path>
                                <path d="M77.2073655,74.7561975 C76.2253586,79.0271154 74.1754113,82.9789144 71.2495231,86.2414679 C67.9825134,89.8915387 63.7738372,92.5719246 59.0846509,93.9889284 C58.6542364,99.5163563 54.93908,102.438644 52.6284339,106.448295 C51.3764685,108.493461 50.71765,110.846384 50.7255488,113.244313 C50.7255488,118.975621 53.6251832,120.040331 58.0879016,120.040331 C61.2156826,120.040331 63.7512499,122.575898 63.7512499,125.703679 C63.7512499,128.83146 61.2156826,131.367027 58.0879016,131.367027 L56.8193116,131.367027 C38.696597,131.367027 36.4312577,122.30567 36.4312577,113.244313 C36.4326024,109.952349 37.1192179,106.696712 38.4474097,103.684581 C40.0079734,100.394036 40.8644174,96.8139463 40.9619364,93.1734062 C37.1917142,91.6441696 33.8210753,89.2730995 31.1077103,86.2414679 C28.1563243,82.9901625 26.0892668,79.0354523 25.1045611,74.7561975 C24.6741467,72.9212727 26.7809122,71.0183877 26.7809122,69.0701958 C26.7809122,65.4456529 25.2178281,62.0023372 26.5770317,58.8761689 C27.3491096,57.1255541 28.3059803,55.4624215 29.4313592,53.9150758 C31.8121758,50.6433624 34.912231,47.9618148 38.4927165,46.0770018 L38.4927165,46.2129221 C45.2887345,46.2129221 50.906776,51.6497365 50.906776,56.6561364 C50.906776,51.6497365 56.4795107,46.2129221 63.3208354,46.2129221 L63.3208354,46.0770018 C66.8985171,47.9158169 70.0004095,50.5601803 72.3821927,53.8018088 L72.4954597,53.8018088 C73.7397075,55.3770019 74.8035047,57.0866759 75.6669347,58.8988223 C77.0261383,62.0249906 75.4630542,65.4683063 75.4630542,69.0928492 C75.4630542,71.0410411 77.5698198,72.9439261 77.2073655,74.7561975 L77.2073655,74.7561975 Z" id="Shape" fill="#FF9801"></path>
                                <path d="M43.8615707,44.015543 C43.6803435,43.7210489 43.4991164,43.4265548 43.2952359,43.154714" id="Shape" fill="#FF9801"></path>
                                <path d="M63.6153296,46.0996551 L63.6153296,46.2355755 C56.8193116,46.2355755 51.2012701,51.6723899 51.2012701,56.6787898 C51.2012701,51.6723899 45.6285354,46.2355755 38.7872106,46.2355755 L38.7872106,46.0996551 C40.2319228,45.3254283 41.7495002,44.6956336 43.3178893,44.2194235 C48.4862142,42.6434732 54.0069395,42.6434732 59.1752645,44.2194235 C60.713791,44.6978815 62.2010875,45.3277061 63.6153296,46.0996551 Z" id="Shape" fill="#D84315"></path>
                                <path d="M59.0846509,44.2194235 C53.9163259,42.6434732 48.3956007,42.6434732 43.2272757,44.2194235 C43.204019,43.8649013 43.204019,43.5092362 43.2272757,43.154714 C44.0427978,36.8570707 51.1559633,33.9800898 51.1559633,33.9800898 C51.1559633,33.9800898 58.2011686,36.8117639 59.0166907,43.0414471 C59.0644722,43.4322521 59.087172,43.8257164 59.0846509,44.2194235 Z" id="Shape" fill="#9D27B0"></path>
                                <path d="M72.6766868,53.8018088 C70.2949036,50.5601803 67.1930112,47.9158169 63.6153296,46.0770018 C62.1721702,45.2995038 60.6542597,44.6695709 59.0846509,44.1967701 C59.1078643,43.8195703 59.1078643,43.4413003 59.0846509,43.0641005 C60.7870489,40.9247031 63.1968072,39.4627829 65.8806689,38.9411829 C67.3657005,38.600979 68.8888204,38.4562827 70.4113475,38.5107684 C70.4113475,38.5107684 76.2332696,47.7080461 72.6766868,53.8018088 Z" id="Shape" fill="#9D27B0"></path>
                                <path d="M59.0846509,43.0414471 C58.855132,43.3382958 58.6433322,43.6484314 58.4503559,43.9702362" id="Shape" fill="#FF9801"></path>
                                <path d="M43.2272757,43.154714 C43.204019,43.5092362 43.204019,43.8649013 43.2272757,44.2194235 C41.6588866,44.6956336 40.1413093,45.3254283 38.696597,46.0996551 C35.1161116,47.9844682 32.0160563,50.6660158 29.6352398,53.9377292 C25.9880435,47.8439664 31.9005791,38.5107684 31.9005791,38.5107684 C33.4231139,38.4560229 34.9462675,38.6007226 36.4312577,38.9411829 C39.1274186,39.4882114 41.5384054,40.9830232 43.2272757,43.154714 Z" id="Shape" fill="#9D27B0"></path>
                                <path d="M65.8806689,31.7147505 L65.8806689,38.9864897 C63.2064861,39.4903607 60.7980809,40.9273758 59.0846509,43.0414471 C58.2691288,36.7891105 51.2239235,33.9800898 51.2239235,33.9800898 C51.2239235,33.9800898 44.0427978,36.8570707 43.2272757,43.154714 C41.5384054,40.9830232 39.1274186,39.4882114 36.4312577,38.9411829 L36.4312577,31.7147505 C36.4583707,28.8583798 38.2687574,26.3238382 40.9619364,25.3718004 C41.6814138,25.0782491 42.4502382,24.9244842 43.2272757,24.9187325 L59.0846509,24.9187325 C59.8587647,24.9100646 60.6274872,25.0484347 61.3499902,25.3264936 C64.0587215,26.2841619 65.8725943,28.8417228 65.8806689,31.7147505 L65.8806689,31.7147505 Z" id="Shape" fill="#FFDC00"></path>
                                <path d="M61.3499902,25.3264936 C60.6274872,25.0484347 59.8587647,24.9100646 59.0846509,24.9187325 L52.288633,24.9187325 C53.0627468,24.9100646 53.8314693,25.0484347 54.5539723,25.3264936 C57.2627035,26.2841619 59.0765763,28.8417228 59.0846509,31.7147505 L59.0846509,38.9864897 C58.6315831,38.9864897 58.1332084,39.235677 57.6574871,39.3942508 C58.3851912,40.4956812 58.8715677,41.7386432 59.0846509,43.0414471 C60.7870489,40.9020497 63.1968072,39.4401295 65.8806689,38.9185295 L65.8806689,31.7147505 C65.8725943,28.8417228 64.0587215,26.2841619 61.3499902,25.3264936 Z" id="Shape" fill="#FEC108"></path>
                                <path d="M61.3499902,18.1227146 L61.3499902,25.3718004 C60.6305128,25.0782491 59.8616884,24.9244842 59.0846509,24.9187325 L43.2272757,24.9187325 C42.4531619,24.9100646 41.6844394,25.0484347 40.9619364,25.3264936 L40.9619364,18.1227146 C40.9619364,16.8716022 41.9761634,15.8573752 43.2272757,15.8573752 L59.0846509,15.8573752 C60.3357632,15.8573752 61.3499902,16.8716022 61.3499902,18.1227146 Z" id="Shape" fill="#9D27B0"></path>
                                <g id="Group" transform="translate(40.961936, 15.857375)" fill="#6A1B9A">
                                    <path d="M0,9.46911836 C0.722503018,9.19105951 1.49122553,9.05268941 2.26533932,9.06135728 L0,9.06135728 L0,9.46911836 Z" id="Shape"></path>
                                    <path d="M18.1227146,0 L11.3266966,0 C12.5778088,0 13.5920359,1.01422696 13.5920359,2.26533932 L13.5920359,9.06135728 L18.1227146,9.06135728 C18.8968283,9.05268941 19.6655509,9.19105951 20.3880539,9.46911836 L20.3880539,2.26533932 C20.3880539,1.01422696 19.3738268,0 18.1227146,0 Z" id="Shape"></path>
                                </g>
                            </g>
                            <g id="Layer_11" fill="#000000">
                                <path d="M0.185828616,130.868652 C0.0365748094,132.157651 0.447171412,133.448778 1.31355053,134.41479 C2.17992964,135.380803 3.41892522,135.928972 4.71650725,135.920459 L102.126098,135.920459 C103.42368,135.928972 104.662676,135.380803 105.529055,134.41479 C106.395434,133.448778 106.80603,132.157651 106.656777,130.868652 L104.232864,110.480599 C103.678419,105.983727 101.908389,101.723125 99.1131967,98.1571527 C102.249333,94.0030009 104.085871,89.0136069 104.391437,83.8175548 C104.583775,80.5813289 103.646994,77.3786588 101.74099,74.7561975 C100.29746,72.8003144 99.6278086,70.3798889 99.8607587,67.9601796 C100.120533,63.0257969 101.499425,58.2151665 103.893063,53.8924224 C105.002548,51.7406722 104.224368,49.0968538 102.126098,47.8892732 C95.0582393,43.6757421 86.2687228,44.763105 78.2947283,50.4037999 C77.8264607,46.5644423 76.5361187,42.8711284 74.5116117,39.5754779 C74.1142168,38.9384124 73.426981,38.5396458 72.6766868,38.5107684 C71.9223653,38.4618743 71.165669,38.4618743 70.4113475,38.5107684 L70.4113475,33.9800898 C70.3839149,30.7704116 68.660501,27.8147563 65.8806689,26.2099759 L65.8806689,20.3880539 C65.8986747,18.0912827 64.1951611,16.1444099 61.9163251,15.8573752 L63.4341024,10.6924016 C63.9308904,8.95024975 63.3745147,7.07800133 62.0069386,5.88988223 L56.4342039,1.11001627 C54.6947801,-0.360587878 52.1478251,-0.360587878 50.4084013,1.11001627 L44.8356666,5.93518902 C43.4680905,7.12330811 42.9117148,8.99555653 43.4085028,10.7377084 L44.9262802,15.8573752 C42.6474442,16.1444099 40.9439305,18.0912827 40.9619364,20.3880539 L40.9619364,26.2099759 C38.1821043,27.8147563 36.4586903,30.7704116 36.4312577,33.9800898 L36.4312577,38.5107684 C35.6239406,38.4647945 34.8146618,38.4647945 34.0073447,38.5107684 C33.2858194,38.5562666 32.6293444,38.9434188 32.24038,39.5528245 C30.2443773,42.8537379 28.9561042,46.5334162 28.4572633,50.3584931 C20.5738825,44.7404516 11.7390591,43.6983955 4.71650725,47.8892732 C2.62656559,49.1044624 1.85888584,51.7464771 2.97219598,53.8924224 C5.35792925,58.2170702 6.72904488,63.0275946 6.98184657,67.9601796 C7.21479654,70.3798889 6.54514542,72.8003144 5.10161494,74.7561975 C3.19561151,77.3786588 2.25883057,80.5813289 2.45116794,83.8175548 C2.77650387,88.9924821 4.6203337,93.9566393 7.75206194,98.0891925 C4.95686957,101.655165 3.18684016,105.915767 2.63239508,110.412638 L0.185828616,130.868652 Z M40.9619364,96.8885627 C40.8002306,98.9468625 40.334559,100.969862 39.5800794,102.891712 C35.0664438,100.342067 31.3372313,96.6050197 28.7970642,92.0860433 L32.761408,91.089294 C35.1311997,93.4735514 37.9084681,95.4145705 40.9619364,96.8206025 L40.9619364,96.8885627 Z M43.2272757,106.244414 C46.013643,98.7914477 45.492615,98.1571527 45.492615,81.5522155 C45.492615,80.3011033 44.4783879,79.2868762 43.2272757,79.2868762 C41.9761634,79.2868762 40.9619364,80.3011033 40.9619364,81.5522155 L40.9619364,91.7688958 C35.2474609,88.4749432 31.148372,82.9657675 29.6352398,76.5458156 C29.6352398,75.8662138 31.379551,73.6914881 31.379551,71.3581886 C31.379551,67.6883389 29.9750407,64.4035969 30.9944434,62.0702974 C33.0685167,57.2782883 36.6576569,53.2991971 41.2111237,50.7436008 C46.7385516,50.7436008 51.1559633,55.2742794 51.1559633,58.8988223 C51.1559633,60.1499346 52.1701904,61.1641616 53.4213026,61.1641616 C54.6724149,61.1641616 55.6866419,60.1499346 55.6866419,58.8988223 C55.6866419,55.2289726 60.2173206,50.8342143 65.6314816,50.7436008 C70.1849484,53.2991971 73.7740886,57.2782883 75.8481619,62.0702974 C76.8449112,64.3356367 75.4630542,67.756299 75.4630542,71.3581886 C75.4630542,73.6235279 77.2526723,75.8888672 77.2073655,76.5231622 C75.475862,83.7967094 70.449151,89.8455181 63.6153296,92.8789121 L63.6153296,81.5522155 C63.6153296,80.3011033 62.6011025,79.2868762 61.3499902,79.2868762 C60.098878,79.2868762 59.0846509,80.3011033 59.0846509,81.5522155 L59.0846509,95.1442514 C59.0846509,102.982325 50.680242,105.700733 50.680242,115.532305 C50.680242,124.389782 57.47626,124.593663 60.239974,124.593663 C62.1166425,124.593663 63.637983,126.115003 63.637983,127.991672 C63.637983,129.86834 62.1166425,131.389681 60.239974,131.389681 C44.3825987,131.389681 40.9619364,126.1794 40.9619364,115.532305 C40.9828153,112.298426 41.7014321,109.10715 43.0687019,106.176454 L43.2272757,106.244414 Z M53.4213026,52.5105654 C52.0782097,50.6801534 50.3449326,49.1712738 48.3469425,48.0931538 C51.6933577,47.3904516 55.1492475,47.3904516 58.4956627,48.0931538 C56.4976726,49.1712738 54.7643956,50.6801534 53.4213026,52.5105654 Z M48.5055163,43.4492081 C49.6434508,41.4280597 51.3537927,39.7886536 53.4213026,38.7373024 C55.5052594,39.7735469 57.2268548,41.4161701 58.3597423,43.4492081 C55.0981047,42.8904235 51.7645503,42.8980867 48.5055163,43.4718615 L48.5055163,43.4492081 Z M63.3434888,97.8173518 C67.4193157,96.3977303 71.1211576,94.0743985 74.1718108,91.0213339 L78.1135012,91.9954298 C74.2201919,99.0225259 67.496074,104.0388 59.6509858,105.768693 C61.4837443,103.467285 62.7487267,100.766586 63.3434888,97.885312 L63.3434888,97.8173518 Z M102.126098,131.389681 L79.4727048,131.389681 C80.4366941,130.5699 81.269424,129.607295 81.9419247,128.535353 C86.744444,120.855853 81.7833509,110.412638 81.5794704,110.004877 C81.0289809,108.878876 79.6699169,108.412332 78.5439157,108.962821 C77.4179145,109.513311 76.9513701,110.872375 77.5018596,111.998376 C77.5018596,111.998376 81.5341636,120.651972 78.1135012,126.134093 C76.3238831,128.965767 72.7673004,130.664772 67.5343666,131.1858 C68.6318895,128.750868 68.4219107,125.925824 66.9764715,123.679904 C65.5310321,121.433984 63.0467289,120.07266 60.3758943,120.062984 C56.3662437,119.949717 55.2105042,119.338075 55.2105042,115.532305 C55.1964141,113.914958 55.5610626,112.316711 56.2756302,110.865706 C67.5486147,109.932297 77.5304115,103.217738 82.6441798,93.1280994 L84.3205309,93.5585139 C92.5863552,95.5917724 98.7190428,102.546367 99.7021849,111.001627 L102.126098,131.389681 Z M99.8607587,51.8083102 C97.1328627,56.7739845 95.5827354,62.3001881 95.33008,67.9601796 C95.1377428,71.1964055 96.0745235,74.3990756 97.980527,77.0215369 C99.4240574,78.97742 100.093709,81.3978455 99.8607587,83.8175548 C99.5798981,87.7373371 98.2152271,91.5019469 95.9190683,94.6911836 C90.3463335,89.7753972 85.4078938,89.1637556 77.3659392,87.1476036 C79.4318535,84.2511063 80.916616,80.9815518 81.7380441,77.5199115 C81.9730051,76.0357124 81.6675499,74.5164753 80.8772152,73.2384202 C83.1452951,73.7898051 85.2545088,74.8599209 87.0389381,76.3645885 C87.4383014,76.7618427 87.971343,76.9960579 88.5340621,77.0215369 C89.4543904,77.026889 90.2864833,76.4749019 90.6394027,75.6249133 C90.992322,74.7749246 90.7959125,73.7958987 90.142453,73.1478066 C87.9037656,71.1770461 85.2350638,69.7573589 82.3496857,69.0022357 C84.040142,67.3143764 86.1917005,66.1637261 88.5340621,65.6948403 C89.7851743,65.6948403 90.7994014,64.6806132 90.7994014,63.4295009 C90.7994014,62.1783887 89.7851743,61.1641616 88.5340621,61.1641616 C85.6570401,61.4510968 82.9371945,62.6133563 80.7412948,64.4942104 C80.8180617,63.0457894 80.5703983,61.5985062 80.0163862,60.2580259 C79.4377556,58.9535737 78.7717424,57.6896626 78.0228876,56.4749092 C85.1813599,49.837465 93.427195,47.9798868 99.8607587,51.8083102 L99.8607587,51.8083102 Z M73.8093565,51.2872822 C71.1354752,48.7149876 67.9892753,46.6841886 64.5441187,45.3067864 C66.5364056,43.8978328 68.900935,43.1096562 71.3401366,43.0414471 C72.7559076,45.5765867 73.5987606,48.3912522 73.8093565,51.2872822 Z M45.492615,24.9187325 L45.492615,20.3880539 L61.3499902,20.3880539 L61.3499902,24.9187325 L45.492615,24.9187325 Z M53.4892628,4.53067864 L59.0846509,9.46911836 L57.2270727,15.8573752 L49.638186,15.8573752 L47.7579543,9.35585139 L53.4892628,4.53067864 Z M40.9619364,33.9800898 C40.9619364,31.4778651 42.9903903,29.4494112 45.492615,29.4494112 L61.3499902,29.4494112 C63.852215,29.4494112 65.8806689,31.4778651 65.8806689,33.9800898 L65.8806689,39.5528245 C64.6221954,39.9719241 63.4259114,40.5586365 62.3240861,41.2971358 C60.4627955,38.1355569 57.6473366,35.6452637 54.2821316,34.1839703 C53.7339802,33.9810125 53.1312785,33.9810125 52.5831271,34.1839703 C49.1935458,35.6363804 46.3590219,38.1374308 44.4958657,41.3197892 C43.407804,40.5544536 42.2183864,39.9444958 40.9619364,39.5075177 L40.9619364,33.9800898 Z M35.4571618,43.0414471 C37.892402,43.1317861 40.2507843,43.9179134 42.2531798,45.3067864 C38.7727908,46.7273016 35.6026251,48.812532 32.9199818,51.4458559 C33.1566307,48.4954975 34.0217153,45.6299044 35.4571618,43.0414471 Z M8.86207821,77.0215369 C10.7680816,74.3990756 11.7048626,71.1964055 11.5125252,67.9601796 C11.2458304,62.2952725 9.69668139,56.7648104 6.98184657,51.7856568 C13.3927568,47.9798868 21.638592,49.7921582 28.7970642,56.4749092 C28.0482094,57.6896626 27.3821963,58.9535737 26.8035656,60.2580259 C26.2495536,61.5985062 26.0018901,63.0457894 26.078657,64.4942104 C23.8889402,62.6175852 21.1776283,61.4555944 18.3085432,61.1641616 C17.0574308,61.1641616 16.0432039,62.1783887 16.0432039,63.4295009 C16.0432039,64.6806132 17.0574308,65.6948403 18.3085432,65.6948403 C20.6509047,66.1637261 22.8024633,67.3143764 24.4929195,69.0022357 C21.6075414,69.7573589 18.9388395,71.1770461 16.7001523,73.1478066 C16.0466926,73.7958987 15.8502833,74.7749246 16.2032026,75.6249133 C16.5561219,76.4749019 17.3882149,77.026889 18.3085432,77.0215369 C18.9106771,77.0250182 19.4894219,76.7886294 19.9169341,76.3645885 C21.7013634,74.8599209 23.8105771,73.7898051 26.078657,73.2384202 C25.2867327,74.5242245 24.9813611,76.0510823 25.2178281,77.5425649 C26.0111803,80.9828589 27.4485406,84.2419002 29.4540126,87.1476036 C21.5026716,89.1411022 16.5189251,89.7753972 10.923537,94.6911836 C8.6273782,91.5019469 7.26270715,87.7373371 6.98184657,83.8175548 C6.77720574,81.4356432 7.4454491,79.0605615 8.86207821,77.1348038 L8.86207821,77.0215369 Z M7.14042033,111.001627 C8.15008716,102.572331 14.277425,95.6508762 22.5220743,93.6264741 L24.2210788,93.1960596 C27.2320167,99.1124071 31.9729032,103.971816 37.8131147,107.127896 C36.8563108,109.824884 36.3883597,112.670946 36.4312577,115.532305 C36.4312577,121.195654 37.3827002,127.334723 42.3891001,131.389681 C36.7257518,131.389681 29.589933,130.981919 26.5317249,126.156747 C23.0431023,120.606665 27.0754063,112.066336 27.1207131,111.998376 C27.4768174,111.269981 27.4172771,110.406937 26.9645207,109.734344 C26.5117641,109.061751 25.734576,108.681793 24.9257153,108.737595 C24.1168546,108.793397 23.3992067,109.276482 23.0431023,110.004877 C22.8392218,110.457945 17.8781287,120.855853 22.6806481,128.535353 C23.3393616,129.604091 24.1566627,130.56652 25.1045611,131.389681 L4.71650725,131.389681 L7.14042033,111.001627 Z" id="Shape"></path>
                                <path d="M63.6153296,72.4908582 C70.4113475,72.4908582 72.4954597,63.4295009 68.1460082,63.4295009 C66.894896,63.4295009 65.8806689,64.443728 65.8806689,65.6948403 C65.8806689,66.9459525 64.8664418,67.9601796 63.6153296,67.9601796 C62.3642173,67.9601796 61.3499902,66.9459525 61.3499902,65.6948403 C61.3499902,64.443728 60.3357632,63.4295009 59.0846509,63.4295009 C54.7578528,63.4295009 56.8193116,72.4908582 63.6153296,72.4908582 Z" id="Shape"></path>
                                <path d="M47.7579543,63.4295009 C46.5068421,63.4295009 45.492615,64.443728 45.492615,65.6948403 C45.492615,66.9459525 44.4783879,67.9601796 43.2272757,67.9601796 C41.9761634,67.9601796 40.9619364,66.9459525 40.9619364,65.6948403 C40.9619364,64.443728 39.9477093,63.4295009 38.696597,63.4295009 C34.3697989,63.4295009 36.4312577,72.4908582 43.2272757,72.4908582 C50.0232936,72.4908582 52.1074058,63.4295009 47.7579543,63.4295009 Z" id="Shape"></path>
                            </g>
                        </g>
                    </g>
                </g>
            </g>
        </g>
    </g>
</svg>