<?xml version="1.0" encoding="UTF-8"?>
<svg width="110px" height="110px" viewBox="0 0 110 110" version="1.1" xmlns="http://www.w3.org/2000/svg" xmlns:xlink="http://www.w3.org/1999/xlink">
    <!-- Generator: Sketch 62 (91390) - https://sketch.com -->
    <title>loy-krathong</title>
    <desc>Created with Sketch.</desc>
    <g id="Page-1" stroke="none" stroke-width="1" fill="none" fill-rule="evenodd">
        <g id="Desktop-HD-Copy" transform="translate(-1061.000000, -681.000000)" fill-rule="nonzero">
            <g id="Group-4" transform="translate(212.000000, 338.000000)">
                <g id="Group-3" transform="translate(0.000000, 295.000000)">
                    <g id="Group-2-Copy-3" transform="translate(792.000000, 0.000000)">
                        <g id="loy-krathong" transform="translate(57.000000, 48.000000)">
                            <circle id="Oval" fill="#FCDA44" cx="14.609375" cy="14.609375" r="11.171875"></circle>
                            <polygon id="Path" fill="#D6845C" points="51.5625 1.71875 61.875 1.71875 61.875 34.375 51.5625 34.375"></polygon>
                            <polygon id="Path" fill="#ACE1EF" points="0 92.8125 110 92.8125 110 110 0 110"></polygon>
                            <polygon id="Path" fill="#F2334F" points="24.0625 70.46875 91.09375 70.46875 91.09375 79.0625 24.0625 79.0625"></polygon>
                            <polygon id="Path" fill="#BBD036" points="20.625 79.0625 92.8125 79.0625 92.8125 92.8125 20.625 92.8125"></polygon>
                            <polygon id="Path" fill="#AEAE27" points="20.625 84.21875 92.8125 84.21875 92.8125 92.8125 20.625 92.8125"></polygon>
                            <polygon id="Path" fill="#EDBA70" points="51.5625 1.71875 56.71875 1.71875 56.71875 34.375 51.5625 34.375"></polygon>
                            <path d="M36.09375,63.59375 C36.09375,69.5578125 33.8421875,74.73125 30.5421875,77.309375 C29.1996479,78.4162401 27.5210119,79.034366 25.78125,79.0625 C20.0921875,79.0625 15.46875,72.1359375 15.46875,63.59375 C15.46875,56.5984375 22.378125,50.703125 24.8875,48.778125 C25.4375,48.3484375 25.78125,48.125 25.78125,48.125 C25.78125,48.125 36.09375,55.0515625 36.09375,63.59375 L36.09375,63.59375 Z" id="Path" fill="#EF6781"></path>
                            <path d="M25.7692188,52.4665625 C22.8971875,54.9071875 18.90625,59.2607812 18.90625,63.59375 C18.90625,70.6835938 22.529375,75.625 25.78125,75.625 C29.033125,75.625 32.65625,70.6835938 32.65625,63.59375 C32.65625,59.0029687 28.359375,54.65625 25.7692188,52.4665625 Z" id="Path" fill="#EF6781"></path>
                            <path d="M36.09375,63.59375 C36.09375,69.5578125 33.8421875,74.73125 30.5421875,77.309375 C24.8359375,68.1140625 24.40625,56.3234375 24.8875,48.778125 C25.4375,48.3484375 25.78125,48.125 25.78125,48.125 C25.78125,48.125 36.09375,55.0515625 36.09375,63.59375 Z" id="Path" fill="#F2334F"></path>
                            <path d="M97.96875,63.59375 C97.96875,72.1359375 93.3453125,79.0625 87.65625,79.0625 C81.9671875,79.0625 77.34375,72.1359375 77.34375,63.59375 C77.34375,55.0515625 87.65625,48.125 87.65625,48.125 C88.9181265,49.0097475 90.113034,49.9863546 91.23125,51.046875 C94.2046875,53.865625 97.96875,58.4375 97.96875,63.59375 L97.96875,63.59375 Z" id="Path" fill="#F2334F"></path>
                            <path d="M87.6442188,52.4665625 C84.7721875,54.9071875 80.78125,59.2607812 80.78125,63.59375 C80.78125,70.6835938 84.404375,75.625 87.65625,75.625 C90.908125,75.625 94.53125,70.6835938 94.53125,63.59375 C94.53125,59.0029687 90.234375,54.65625 87.6442188,52.4665625 Z" id="Path" fill="#F2334F"></path>
                            <path d="M87.65625,79.0625 C81.9671875,79.0625 77.34375,72.1359375 77.34375,63.59375 C77.34375,55.0515625 87.65625,48.125 87.65625,48.125 C88.9181265,49.0097475 90.113034,49.9863546 91.23125,51.046875 C94.3759702,60.4417883 93.0594984,70.7583704 87.65625,79.0625 Z" id="Path" fill="#F45876"></path>
                            <path d="M56.71875,63.59375 C56.71875,69.3 54.65625,74.3015625 51.5796875,76.965625 C50.1750978,78.2822476 48.331162,79.0296236 46.40625,79.0625 C40.7171875,79.0625 36.09375,72.1359375 36.09375,63.59375 C36.09375,56.30625 43.6046875,50.1875 45.8046875,48.5546875 C46.1828125,48.2796875 46.40625,48.125 46.40625,48.125 C46.40625,48.125 56.71875,55.0515625 56.71875,63.59375 Z" id="Path" fill="#F78BA5"></path>
                            <path d="M46.3942188,52.4665625 C43.5221875,54.9071875 39.53125,59.2607812 39.53125,63.59375 C39.53125,70.6835938 43.154375,75.625 46.40625,75.625 C49.658125,75.625 53.28125,70.6835938 53.28125,63.59375 C53.28125,59.0029687 48.984375,54.65625 46.3942188,52.4665625 L46.3942188,52.4665625 Z" id="Path" fill="#F78BA5"></path>
                            <path d="M56.71875,63.59375 C56.71875,69.3 54.65625,74.3015625 51.5796875,76.965625 C45.71875,69.1109375 45.3921875,56.203125 45.8046875,48.5546875 C46.1828125,48.2796875 46.40625,48.125 46.40625,48.125 C46.40625,48.125 56.71875,55.0515625 56.71875,63.59375 Z" id="Path" fill="#F2334F"></path>
                            <path d="M77.34375,63.59375 C77.34375,72.1359375 72.7203125,79.0625 67.03125,79.0625 C65.4247934,79.0417261 63.8662798,78.5121925 62.5796875,77.55 C59.1078125,75.0578125 56.71875,69.746875 56.71875,63.59375 C56.71875,55.0515625 67.03125,48.125 67.03125,48.125 C67.03125,48.125 67.8046875,48.640625 68.9390625,49.5859375 C71.9125,52.04375 77.34375,57.3890625 77.34375,63.59375 Z" id="Path" fill="#F2334F"></path>
                            <path d="M67.03125,75.625 C66.2323073,75.6052136 65.4585728,75.3413041 64.8140625,74.86875 C62.321875,73.2703125 60.15625,69.0765625 60.15625,63.59375 C60.15625,59.2625 64.14375,54.9140625 67.0140625,52.4734375 C67.9760942,53.2770592 68.8833253,54.1440966 69.7296875,55.06875 C71.8609375,57.371875 73.90625,60.43125 73.90625,63.59375 C73.90625,70.675 70.2796875,75.625 67.03125,75.625 Z" id="Path" fill="#F2334F"></path>
                            <path d="M64.8140625,74.86875 C64.1240597,75.8067698 63.3779032,76.7021576 62.5796875,77.55 C59.1078125,75.0578125 56.71875,69.746875 56.71875,63.59375 C56.71875,55.0515625 67.03125,48.125 67.03125,48.125 C67.03125,48.125 67.8046875,48.640625 68.9390625,49.5859375 C69.3206468,51.394565 69.5847407,53.2259992 69.7296875,55.06875 C70.4938995,62.0430397 68.7514219,69.0616907 64.8140625,74.86875 L64.8140625,74.86875 Z" id="Path" fill="#F9B9CB"></path>
                            <g id="Group" fill="#082944">
                                <polygon id="Path" points="70.46875 1.71875 73.90625 1.71875 73.90625 5.15625 70.46875 5.15625"></polygon>
                                <polygon id="Path" points="70.46875 12.03125 73.90625 12.03125 73.90625 15.46875 70.46875 15.46875"></polygon>
                                <polygon id="Path" points="39.53125 1.71875 42.96875 1.71875 42.96875 5.15625 39.53125 5.15625"></polygon>
                                <polygon id="Path" points="39.53125 12.03125 42.96875 12.03125 42.96875 15.46875 39.53125 15.46875"></polygon>
                                <path d="M108.28125,91.09375 L94.53125,91.09375 L94.53125,79.0625 C94.5221868,78.7095556 94.4018816,78.3684904 94.1875,78.0879688 C97.9321368,74.2160092 99.9208253,68.9751936 99.6875,63.59375 C99.6875,54.2420313 89.0673438,47.0026563 88.6153125,46.6984375 C88.0357852,46.3092597 87.2784336,46.3092597 86.6989063,46.6984375 C82.8493969,49.3719468 79.6518143,52.878537 77.34375,56.9576562 C75.0361787,52.8787188 71.8391971,49.3721434 67.9903125,46.6984375 C67.4107852,46.3092597 66.6534336,46.3092597 66.0739063,46.6984375 C63.1452132,48.7528818 60.5666958,51.265819 58.4375,54.140625 L58.4375,36.09375 L61.875,36.09375 C62.8242394,36.09375 63.59375,35.3242394 63.59375,34.375 L63.59375,1.71875 C63.59375,0.769510586 62.8242394,-1.22124533e-14 61.875,-1.22124533e-14 L51.5625,-1.22124533e-14 C50.6132606,-1.22124533e-14 49.84375,0.769510586 49.84375,1.71875 L49.84375,8.59375 C49.84375,9.54298941 50.6132606,10.3125 51.5625,10.3125 C52.5117394,10.3125 53.28125,9.54298941 53.28125,8.59375 L53.28125,3.4375 L60.15625,3.4375 L60.15625,32.65625 L53.28125,32.65625 L53.28125,15.46875 C53.28125,14.5195106 52.5117394,13.75 51.5625,13.75 C50.6132606,13.75 49.84375,14.5195106 49.84375,15.46875 L49.84375,34.375 C49.84375,35.3242394 50.6132606,36.09375 51.5625,36.09375 L55,36.09375 L55,54.140625 C52.8718895,51.2635064 50.2939301,48.7482259 47.3653125,46.6915625 C46.7857852,46.3023847 46.0284336,46.3023847 45.4489063,46.6915625 C41.5986206,49.3670379 38.4009785,52.8760433 36.09375,56.9576562 C33.7861787,52.8787188 30.5891971,49.3721434 26.7403125,46.6984375 C26.1607852,46.3092597 25.4034336,46.3092597 24.8239063,46.6984375 C24.3701563,47.0026562 13.75,54.2420312 13.75,63.59375 C13.5166747,68.9751936 15.5053632,74.2160092 19.25,78.0879688 C19.0356184,78.3684904 18.9153132,78.7095556 18.90625,79.0625 L18.90625,91.09375 L1.71875,91.09375 C0.769510586,91.09375 2.44249065e-14,91.8632606 2.44249065e-14,92.8125 C2.44249065e-14,93.7617394 0.769510586,94.53125 1.71875,94.53125 L67.03125,94.53125 C67.9804894,94.53125 68.75,93.7617394 68.75,92.8125 C68.75,91.8632606 67.9804894,91.09375 67.03125,91.09375 L22.34375,91.09375 L22.34375,80.78125 L91.09375,80.78125 L91.09375,91.09375 L85.9375,91.09375 C84.9882606,91.09375 84.21875,91.8632606 84.21875,92.8125 C84.21875,93.7617394 84.9882606,94.53125 85.9375,94.53125 L108.28125,94.53125 C109.230489,94.53125 110,93.7617394 110,92.8125 C110,91.8632606 109.230489,91.09375 108.28125,91.09375 L108.28125,91.09375 Z M87.65625,50.2579688 C90.0796875,52.133125 96.25,57.5042188 96.25,63.59375 C96.25,71.0479688 92.3140625,77.34375 87.65625,77.34375 C82.9984375,77.34375 79.0625,71.0479688 79.0625,63.59375 C79.0625,57.523125 85.23625,52.1382813 87.65625,50.2579688 Z M80.375625,77.34375 L74.311875,77.34375 C75.5977617,75.9304498 76.6241279,74.3012969 77.34375,72.53125 C78.0633721,74.3012969 79.0897383,75.9304498 80.375625,77.34375 L80.375625,77.34375 Z M67.03125,50.2579688 C69.4546875,52.133125 75.625,57.5042188 75.625,63.59375 C75.625,71.0479688 71.6890625,77.34375 67.03125,77.34375 C62.3734375,77.34375 58.4375,71.0479688 58.4375,63.59375 C58.4375,57.523125 64.61125,52.1382813 67.03125,50.2579688 Z M59.750625,77.34375 L53.686875,77.34375 C54.9727617,75.9304498 55.9991279,74.3012969 56.71875,72.53125 C57.4383721,74.3012969 58.4647383,75.9304498 59.750625,77.34375 L59.750625,77.34375 Z M46.40625,50.2579688 C48.8296875,52.133125 55,57.5042188 55,63.59375 C55,71.0479688 51.0640625,77.34375 46.40625,77.34375 C41.7484375,77.34375 37.8125,71.0479688 37.8125,63.59375 C37.8125,57.523125 43.98625,52.1382813 46.40625,50.2579688 L46.40625,50.2579688 Z M39.125625,77.34375 L33.061875,77.34375 C34.3477617,75.9304498 35.3741279,74.3012969 36.09375,72.53125 C36.8133721,74.3012969 37.8397383,75.9304498 39.125625,77.34375 L39.125625,77.34375 Z M17.1875,63.59375 C17.1875,57.523125 23.36125,52.1382813 25.78125,50.2579688 C28.2046875,52.133125 34.375,57.5042188 34.375,63.59375 C34.375,71.0479688 30.4390625,77.34375 25.78125,77.34375 C21.1234375,77.34375 17.1875,71.0479688 17.1875,63.59375 Z" id="Shape"></path>
                                <path d="M73.90625,104.84375 L104.84375,104.84375 C105.792989,104.84375 106.5625,104.074239 106.5625,103.125 C106.5625,102.175761 105.792989,101.40625 104.84375,101.40625 L73.90625,101.40625 C72.9570106,101.40625 72.1875,102.175761 72.1875,103.125 C72.1875,104.074239 72.9570106,104.84375 73.90625,104.84375 Z" id="Path"></path>
                                <path d="M49.84375,104.84375 C50.7929894,104.84375 51.5625,104.074239 51.5625,103.125 C51.5625,102.175761 50.7929894,101.40625 49.84375,101.40625 L46.40625,101.40625 C45.4570106,101.40625 44.6875,102.175761 44.6875,103.125 C44.6875,104.074239 45.4570106,104.84375 46.40625,104.84375 L49.84375,104.84375 Z" id="Path"></path>
                                <path d="M73.90625,94.53125 L79.0625,94.53125 C80.0117394,94.53125 80.78125,93.7617394 80.78125,92.8125 C80.78125,91.8632606 80.0117394,91.09375 79.0625,91.09375 L73.90625,91.09375 C72.9570106,91.09375 72.1875,91.8632606 72.1875,92.8125 C72.1875,93.7617394 72.9570106,94.53125 73.90625,94.53125 Z" id="Path"></path>
                                <path d="M39.53125,101.40625 L1.71875,101.40625 C0.769510586,101.40625 0,102.175761 0,103.125 C0,104.074239 0.769510586,104.84375 1.71875,104.84375 L39.53125,104.84375 C40.4804894,104.84375 41.25,104.074239 41.25,103.125 C41.25,102.175761 40.4804894,101.40625 39.53125,101.40625 Z" id="Path"></path>
                                <path d="M61.875,104.84375 C62.8242394,104.84375 63.59375,104.074239 63.59375,103.125 C63.59375,102.175761 62.8242394,101.40625 61.875,101.40625 L58.4375,101.40625 C57.4882606,101.40625 56.71875,102.175761 56.71875,103.125 C56.71875,104.074239 57.4882606,104.84375 58.4375,104.84375 L61.875,104.84375 Z" id="Path"></path>
                                <path d="M14.609375,24.0625 C9.39130632,24.0558715 5.16287853,19.8274437 5.15625,14.609375 C5.15625,13.6601356 4.38673941,12.890625 3.4375,12.890625 C2.48826059,12.890625 1.71875,13.6601356 1.71875,14.609375 C1.71875,20.7340517 6.02785165,26.013305 12.0285198,27.2395375 C18.029188,28.46577 24.0642023,25.3003822 26.466776,19.6666175 C28.8693497,14.0328529 26.9760601,7.48636277 21.9372424,4.00469924 C16.8984247,0.523035717 10.1054476,1.06759048 5.685625,5.3075 C5.22516083,5.72843133 5.02894342,6.36582527 5.17296072,6.97284212 C5.31697802,7.57985896 5.77861393,8.06117444 6.3790935,8.23039241 C6.97957307,8.39961037 7.62459863,8.2301573 8.064375,7.78765625 C11.134304,4.84264554 15.7932549,4.31104955 19.447701,6.48879509 C23.1021472,8.66654063 24.8517423,13.0170963 23.7225286,17.1186117 C22.5933148,21.2201271 18.8634968,24.0621115 14.609375,24.0625 L14.609375,24.0625 Z" id="Path"></path>
                                <path d="M27.5,84.21875 C26.5507606,84.21875 25.78125,84.9882606 25.78125,85.9375 C25.78125,86.8867394 26.5507606,87.65625 27.5,87.65625 L29.21875,87.65625 C30.1679894,87.65625 30.9375,86.8867394 30.9375,85.9375 C30.9375,84.9882606 30.1679894,84.21875 29.21875,84.21875 L27.5,84.21875 Z" id="Path"></path>
                                <path d="M34.375,84.21875 C33.4257606,84.21875 32.65625,84.9882606 32.65625,85.9375 C32.65625,86.8867394 33.4257606,87.65625 34.375,87.65625 L36.09375,87.65625 C37.0429894,87.65625 37.8125,86.8867394 37.8125,85.9375 C37.8125,84.9882606 37.0429894,84.21875 36.09375,84.21875 L34.375,84.21875 Z" id="Path"></path>
                            </g>
                        </g>
                    </g>
                </g>
            </g>
        </g>
    </g>
</svg>